<svg version="1.1" id="Layer_1" xmlns="http://www.w3.org/2000/svg" xmlns:xlink="http://www.w3.org/1999/xlink" x="0px" y="0px"
	 width="100%" viewBox="0 0 1024 1024" enable-background="new 0 0 1024 1024" xml:space="preserve">
<path fill="#000000" opacity="1.000000" stroke="none" 
	d="
M495.188477,774.146729 
	C436.536621,769.517456 385.060120,748.477417 341.107056,710.109924 
	C296.598694,671.257874 267.931335,622.730103 256.691132,564.582886 
	C242.483643,491.085724 256.965027,423.350647 299.518433,361.715332 
	C305.260773,353.398041 311.397369,345.348633 318.881622,337.893951 
	C320.862030,340.773987 320.045502,343.452362 319.801239,345.933044 
	C316.199738,382.512817 325.514130,416.402130 344.099213,447.229706 
	C361.946014,476.832733 387.373993,498.724731 421.148651,509.047882 
	C435.481079,513.428528 450.278931,514.474915 464.951385,509.796753 
	C467.321228,509.041138 469.604462,508.001892 471.900421,507.029297 
	C475.565918,505.476532 478.716248,502.865143 477.441833,498.751221 
	C476.061951,494.296753 471.871063,496.342560 468.825806,496.892914 
	C456.050171,499.201630 443.217224,499.443573 430.603119,496.612885 
	C405.913239,491.072357 386.614105,476.763489 369.986389,458.235840 
	C358.376160,445.298981 349.938080,430.906586 347.374542,413.446594 
	C346.808716,409.592651 344.687012,406.330536 342.785706,402.986267 
	C334.749725,388.851685 333.172424,373.385681 333.854980,357.546844 
	C334.036713,353.330414 335.928711,352.680878 339.299744,355.500092 
	C347.093811,362.018250 354.627838,368.853119 362.523010,375.243591 
	C393.084259,399.980499 427.353973,417.024445 466.172913,424.276001 
	C473.885345,425.716736 481.839081,425.528534 489.591522,424.444519 
	C500.521027,422.916290 508.918427,416.929047 515.722290,408.337494 
	C522.517151,399.757324 528.270508,390.385803 537.052002,383.352295 
	C563.223206,362.390656 595.606812,375.020081 603.954529,402.757751 
	C598.263000,406.518951 592.297729,409.943420 587.876404,415.643158 
	C577.691772,428.772736 573.507019,443.934448 571.293274,459.983398 
	C568.994873,476.646240 566.318848,493.228973 559.062866,508.679749 
	C551.669556,524.422913 540.827332,537.067200 526.496826,546.984375 
	C508.815796,559.220276 488.874939,565.991455 468.660248,572.417725 
	C440.047333,581.513794 413.804199,594.603699 393.251648,617.477661 
	C376.702789,635.895752 366.463409,657.021179 363.202271,681.545105 
	C362.829498,684.348572 362.321198,687.146667 362.159851,689.963501 
	C361.561462,700.410095 362.545959,701.730530 373.074585,705.127319 
	C375.364929,701.631531 375.044891,697.466919 375.515503,693.633057 
	C380.989441,649.039368 405.040710,617.990112 444.587830,598.042175 
	C459.069794,590.737305 474.364410,585.593872 489.659912,580.363586 
	C514.970703,571.708679 538.697449,560.369019 556.872986,539.757935 
	C568.391907,526.695496 575.345947,511.439545 579.806396,494.814209 
	C583.573303,480.774170 584.569763,466.253113 587.532532,452.062042 
	C592.312744,429.166473 605.450806,414.301575 627.931824,407.735321 
	C628.883606,407.457367 629.795715,407.025024 630.696350,406.601044 
	C630.966858,406.473694 631.135986,406.130798 631.575378,405.633148 
	C630.402039,401.790222 627.254211,399.206390 624.547485,396.445770 
	C618.482300,390.259705 612.520508,384.013702 606.824463,377.462555 
	C584.499939,351.786621 546.048035,351.352020 522.278931,375.990509 
	C514.129761,384.437714 507.612244,394.072662 500.722870,403.446411 
	C497.340149,408.049011 492.942108,409.891632 487.493134,410.223785 
	C472.981659,411.108337 458.843994,408.978424 445.191559,404.290619 
	C411.502777,392.722839 381.270905,375.415344 356.081543,349.828308 
	C349.073120,342.709259 341.653137,336.029053 335.363098,328.187195 
	C332.793182,324.983215 332.771057,323.161530 335.800446,320.413635 
	C364.869659,294.045319 397.963257,274.782928 435.439331,262.945343 
	C466.834808,253.028412 499.064301,249.698959 531.655396,251.975967 
	C582.203674,255.507568 628.184875,272.421356 668.843262,302.899750 
	C721.064331,342.045807 754.303650,393.646240 768.653931,457.283691 
	C775.193970,486.286163 776.091003,515.618408 772.511047,545.130737 
	C766.454346,595.061218 747.406006,639.456421 715.668091,678.367920 
	C682.427673,719.121399 640.537231,747.165588 590.387573,763.017822 
	C559.495605,772.782837 527.856262,775.692627 495.188477,774.146729 
M598.118530,630.890503 
	C599.841797,631.500732 601.287964,630.683899 602.895813,630.201660 
	C606.604980,629.089294 608.464478,625.471436 611.717896,623.958679 
	C624.685547,617.928894 636.869629,610.452026 649.369812,603.580872 
	C671.487671,591.422913 694.198730,580.769531 718.546448,573.944458 
	C729.273987,570.937378 740.068115,568.110657 751.151367,566.553833 
	C753.951111,566.160583 757.608826,566.014709 757.589966,561.746399 
	C757.523499,546.728760 760.480713,531.946045 760.966980,516.964355 
	C761.124329,512.115662 759.677551,510.514954 754.648865,509.967896 
	C734.156616,507.738617 714.456238,511.547363 695.019714,517.137573 
	C667.695923,524.996277 643.062439,538.632568 619.407593,554.027161 
	C589.646545,573.395569 558.078003,588.931641 524.442200,600.267517 
	C501.081848,608.140381 479.230255,618.641235 459.812561,634.221497 
	C430.715210,657.568481 412.867676,686.876343 409.524292,724.420166 
	C409.403900,725.772278 408.714478,727.478577 410.987488,728.156555 
	C412.564606,727.207336 412.900696,725.538940 413.147736,723.932922 
	C414.477234,715.290222 417.749420,707.279419 420.944519,699.223083 
	C428.395447,680.435974 440.354492,664.523071 454.417023,650.536987 
	C470.908569,634.135193 491.083160,622.832886 513.112488,615.432068 
	C545.557068,604.532227 577.020874,591.523254 606.818665,574.609558 
	C611.306641,572.062073 615.868713,569.643372 620.426208,567.220947 
	C622.301147,566.224365 624.303406,565.681030 625.743469,567.863708 
	C627.644775,570.745605 630.602417,571.732178 633.634705,572.740540 
	C640.034485,574.868652 640.865784,576.397766 638.072266,582.566895 
	C635.259827,588.777588 632.918579,595.271851 629.789978,601.230652 
	C624.974182,610.402710 613.619019,612.133362 606.616821,619.102417 
	C606.513184,619.205627 606.304138,619.203552 606.143860,619.249023 
	C600.409668,620.876770 598.282104,625.206055 598.118530,630.890503 
M409.067993,358.978485 
	C412.165741,359.581421 411.616699,357.191437 411.869019,355.519287 
	C413.408356,345.316711 412.278809,334.848206 414.881561,324.756714 
	C415.809387,321.159393 416.018341,317.252869 418.820496,314.079987 
	C422.407776,315.747711 423.129211,319.215912 424.610901,322.044067 
	C437.456238,346.561737 453.586945,368.282684 476.889740,383.975647 
	C479.133820,385.486877 481.483459,386.648712 484.076477,387.353607 
	C485.477539,387.734467 486.721008,387.622711 487.543762,386.216644 
	C489.197693,383.390198 490.856995,380.566864 492.470734,377.816101 
	C490.983917,375.356689 488.689911,374.198944 486.679901,372.779327 
	C474.468170,364.154510 463.986053,353.706970 454.733887,342.055481 
	C442.410034,326.535614 432.554108,309.673859 427.654144,290.220428 
	C426.372467,285.131927 424.228363,284.188873 420.812714,287.268860 
	C413.365601,293.984131 406.574371,301.155487 403.484528,311.217163 
	C400.137299,322.117035 398.552643,333.291046 397.358093,344.527985 
	C396.432251,353.237030 396.735046,353.266357 404.800934,357.013428 
	C406.007996,357.574219 407.196899,358.173981 409.067993,358.978485 
M429.318359,530.920349 
	C420.253143,534.695251 411.140686,538.313965 401.788116,541.364929 
	C378.064545,549.103943 354.073547,556.067932 330.719421,564.883240 
	C316.498932,570.251038 302.997894,577.164185 291.940857,587.947754 
	C285.615387,594.116882 285.858582,601.767273 292.343109,608.368652 
	C294.842468,607.963562 296.269684,606.008484 297.757233,604.284851 
	C304.150513,596.877014 311.822357,591.173706 320.416534,586.559570 
	C338.739410,576.722290 358.610077,571.053406 378.281982,564.840393 
	C396.207092,559.179138 414.333130,554.052185 431.086945,545.255493 
	C436.689575,542.313843 442.140198,539.095703 446.926147,534.881897 
	C449.828918,532.326111 449.638580,530.370483 446.112152,528.466980 
	C443.240662,526.917053 440.408844,526.693359 437.455688,527.686523 
	C434.935730,528.533997 432.500061,529.632202 429.318359,530.920349 
M510.544189,714.108765 
	C512.930603,710.308533 515.092102,706.343323 517.740479,702.735413 
	C532.840820,682.164124 551.233154,664.961365 571.979858,650.203674 
	C574.148499,648.661072 576.143127,646.998169 577.851501,644.870483 
	C580.500854,641.570862 579.074829,639.935913 575.784729,639.348022 
	C570.075317,638.327942 564.496643,638.528320 559.744568,642.625916 
	C554.662354,647.008179 548.837280,650.221863 542.822388,653.105713 
	C517.667358,665.166199 501.222198,685.324097 490.886383,710.558594 
	C487.666138,718.420715 484.843109,725.932434 477.618622,730.928040 
	C476.947815,731.391907 476.465424,732.122437 475.871735,732.704712 
	C474.216827,734.327942 474.080872,736.124939 475.082428,738.162109 
	C477.997650,744.091919 483.703339,744.613464 489.128784,744.901672 
	C493.492310,745.133484 497.066650,743.173340 498.861938,738.598511 
	C502.081543,730.394165 505.428589,722.228821 510.544189,714.108765 
M288.875641,532.604004 
	C292.443176,536.184265 296.493866,538.963013 301.300812,540.703003 
	C318.107330,546.786621 340.813141,536.874084 347.278015,515.503418 
	C349.502380,508.150391 349.495300,500.214325 345.221771,493.291809 
	C341.805817,487.758484 337.277252,483.037598 331.940857,479.210205 
	C317.656708,468.965271 296.935608,471.705383 285.508728,485.324280 
	C274.499481,498.445343 275.822906,520.317261 288.875641,532.604004 
M635.612427,439.302856 
	C631.760864,447.843719 632.600769,456.458527 635.203613,465.102051 
	C637.187988,471.692139 640.563293,477.605988 644.014404,483.500671 
	C646.203613,487.240051 646.142944,490.129883 641.908447,493.103485 
	C633.283447,499.160370 624.396912,504.625824 614.637329,508.580414 
	C611.038513,510.038666 609.682739,511.916656 611.272888,515.824402 
	C612.913696,519.856873 615.436279,518.695984 618.161743,517.595581 
	C628.703735,513.339417 638.950623,508.478699 647.257080,500.528442 
	C652.356445,495.647797 657.969055,493.926086 664.929016,494.766388 
	C670.015381,495.380524 675.256348,495.292267 680.379639,494.892334 
	C689.026245,494.217377 697.122925,491.634827 703.205627,485.071625 
	C707.440674,480.502136 706.348022,476.441193 700.463196,474.396851 
	C695.759705,472.762878 690.917053,471.997162 685.773438,472.776855 
	C679.571716,473.717041 673.992432,476.231018 668.289734,478.499146 
	C666.037170,479.395081 664.232422,479.725220 664.173828,476.428314 
	C658.394043,478.620270 657.690186,478.379608 656.877136,472.598785 
	C655.514771,462.912903 652.356262,453.887634 647.730896,445.320374 
	C646.111389,442.320587 643.980225,439.862549 640.949036,438.203674 
	C639.154541,437.221588 637.522766,436.916534 635.612427,439.302856 
M658.320923,411.268768 
	C658.431274,418.320190 660.527405,424.747498 664.948242,430.219727 
	C669.226990,435.516022 673.786377,440.589905 678.325378,445.669556 
	C680.293213,447.871796 682.913635,448.910492 685.902832,448.892456 
	C689.228333,448.872375 692.589722,449.151337 695.873047,448.766815 
	C709.343811,447.189240 721.578247,443.083588 729.382141,430.886566 
	C733.291809,424.775909 731.263062,420.681091 723.946960,420.136841 
	C716.271790,419.565826 709.004883,421.122833 702.805359,425.947296 
	C699.536865,428.490784 696.664551,431.538025 693.448730,434.155609 
	C688.922485,437.839783 686.001892,436.872559 684.490540,431.272034 
	C683.452515,427.425507 682.781128,423.474762 681.636902,419.663330 
	C679.125610,411.298218 675.720947,403.353424 668.884033,397.499634 
	C664.388123,393.650177 661.097778,394.778534 659.346924,400.492096 
	C658.358398,403.717773 658.258057,407.034180 658.320923,411.268768 
M529.451050,731.729736 
	C529.453125,731.896545 529.419373,732.074768 529.467529,732.226990 
	C529.514771,732.376587 529.685120,732.630554 529.733643,732.615845 
	C531.693359,732.020874 532.250122,730.135193 533.202271,728.673157 
	C547.544983,706.651306 565.332520,687.901062 586.748108,672.681580 
	C599.127197,663.884277 612.797791,657.211426 625.953674,649.703857 
	C649.357727,636.348145 671.739990,621.129578 697.244080,611.607483 
	C711.364136,606.335632 725.731567,602.004395 740.624451,600.375183 
	C746.298950,599.754517 748.201233,598.193420 748.371277,593.165894 
	C746.374329,591.679932 744.353149,592.248962 742.425903,592.465820 
	C715.436096,595.502991 690.929810,605.565002 667.682861,619.088745 
	C651.127502,628.719666 634.581116,638.370361 618.167847,648.240234 
	C599.642944,659.380066 580.242004,669.112122 564.093994,683.989685 
	C549.420349,697.508972 537.325439,712.683167 529.451050,731.729736 
M715.071472,367.512512 
	C714.828857,364.031342 714.662476,360.542664 714.322571,357.071014 
	C713.965637,353.425629 712.981628,349.947723 708.700623,349.302704 
	C704.731628,348.704620 702.200989,351.296692 700.063171,354.200195 
	C699.281250,355.262207 698.591492,356.441315 698.106140,357.664764 
	C693.362732,369.622009 692.898315,382.007812 695.269775,394.441193 
	C696.057190,398.569824 696.829346,403.833344 702.540222,404.544159 
	C705.753235,404.944092 710.417053,399.130585 711.591980,393.642883 
	C713.367188,385.351654 715.152771,377.044495 715.071472,367.512512 
M731.383240,604.786194 
	C725.556335,606.983276 719.527222,608.900940 720.518494,617.218262 
	C720.663696,618.436523 719.338745,619.899780 718.538208,621.149902 
	C712.319885,630.860168 708.835693,641.793213 704.613403,652.387634 
	C703.902710,654.170898 704.154297,656.252808 705.891602,657.845154 
	C726.769043,645.910645 733.607117,624.536255 743.596741,604.968323 
	C739.172546,603.079895 735.650879,602.981445 731.383240,604.786194 
M427.091980,727.338562 
	C427.338135,728.121826 427.392242,729.051819 427.860870,729.665039 
	C431.491302,734.416443 446.271881,737.935120 451.586914,735.383850 
	C455.532166,733.490051 456.128357,730.996826 453.334076,727.668091 
	C451.407501,725.373108 449.369965,723.171082 447.376221,720.932678 
	C444.754883,717.989624 441.899597,715.075256 437.553131,716.528870 
	C432.611145,718.181702 427.703827,720.235718 427.091980,727.338562 
M573.004028,404.186676 
	C573.301025,403.075989 573.750671,401.981110 573.867615,400.851776 
	C574.282593,396.842682 572.793945,393.700348 569.306396,391.590149 
	C565.965942,389.568909 562.926392,390.707092 559.957214,392.522339 
	C556.525330,394.620514 555.693970,397.816986 556.067505,401.562653 
	C556.434387,405.240326 558.861755,407.128326 562.014709,408.189941 
	C566.277954,409.625427 569.853394,408.458344 573.004028,404.186676 
z"/>
<path fill="#000000" opacity="1.000000" stroke="none" 
	d="
M324.770203,512.261047 
	C318.522644,509.345612 315.810028,504.856293 316.251831,498.212677 
	C316.578888,493.294586 316.316162,488.337250 316.316162,483.376038 
	C329.370972,484.012939 341.976532,499.518951 339.913971,511.104248 
	C338.667053,518.108154 336.232788,519.256348 330.134033,515.668762 
	C328.413849,514.656860 326.758881,513.534058 324.770203,512.261047 
z"/>
<path fill="#000000" opacity="1.000000" stroke="none" 
	d="
M287.841919,498.132751 
	C290.955261,491.183502 296.331177,487.144104 302.592804,484.087891 
	C305.579407,482.630157 307.419556,483.303040 307.390717,486.995972 
	C307.349121,492.317383 307.315155,497.639160 307.333710,502.960571 
	C307.341278,505.137054 306.397095,506.774414 304.809052,508.145966 
	C301.525146,510.982361 297.953430,513.392944 294.197357,515.562988 
	C290.767365,517.544617 288.651642,516.509338 287.203674,513.012512 
	C285.155334,508.065735 285.676178,503.268372 287.841919,498.132751 
z"/>
<path fill="#000000" opacity="1.000000" stroke="none" 
	d="
M326.209534,531.438843 
	C315.542450,535.453491 315.512970,535.452942 315.709961,524.624390 
	C315.748260,522.517639 315.243561,520.340088 316.509491,517.552856 
	C321.571747,519.886230 326.496552,522.565796 329.980713,526.698181 
	C332.095367,529.206238 328.606262,530.355591 326.209534,531.438843 
z"/>
<path fill="#000000" opacity="1.000000" stroke="none" 
	d="
M296.790466,530.447876 
	C294.668793,529.064697 293.736725,527.484131 295.754028,525.882996 
	C299.082886,523.240967 302.633667,520.878479 306.608398,518.026978 
	C308.940796,523.894897 308.438507,529.178833 307.991241,534.743530 
	C303.483215,534.697083 300.352112,532.486572 296.790466,530.447876 
z"/>
</svg>